<svg xmlns="http://www.w3.org/2000/svg" version="1.1" xmlns:xlink="http://www.w3.org/1999/xlink" xmlns:svgjs="http://svgjs.dev/svgjs" width="1440" height="560" preserveAspectRatio="none" viewBox="0 0 1440 560"><g mask="url(&quot;#SvgjsMask1045&quot;)" fill="none"><rect width="1440" height="560" x="0" y="0" fill="rgba(197, 213, 231, 1)"></rect><path d="M0,634.123C117.578,620.348,170.723,480.584,256.252,398.736C323.379,334.498,397.867,282.711,448.572,204.856C506.328,116.175,592.286,21.446,569.243,-81.845C546.047,-185.821,416.618,-221.079,337.607,-292.538C270.047,-353.64,218.424,-427.886,138.437,-471.472C42.929,-523.515,-61.506,-595.424,-166.565,-567.268C-271.65,-539.105,-323.826,-423.136,-382.87,-331.759C-434.918,-251.21,-470.366,-164.439,-487.793,-70.134C-505.827,27.455,-518.367,128.04,-485.118,221.546C-450.237,319.642,-377.291,396.219,-297.982,463.669C-209.012,539.335,-116.002,647.713,0,634.123" fill="#b6cae1"></path><path d="M1440 1064.811C1538.703 1065.167 1633.048 1041.125 1722.788 1000.0260000000001 1824.3319999999999 953.521 1946.528 914.0989999999999 1991.9099999999999 812.049 2037.266 710.057 1986.953 592.232 1951.151 486.508 1920.327 395.485 1872.43 311.409 1800.713 247.44099999999997 1734.571 188.445 1647.193 168.71499999999997 1563.187 140.462 1475.576 110.99700000000001 1387.743 53.98399999999998 1298.644 78.58600000000001 1209.326 103.24900000000002 1170.83 204.947 1102.601 267.642 1023.172 340.629 886.441 371.623 864.75 477.291 843.249 582.031 948.937 667.142 1001.477 760.267 1049.108 844.691 1078.905 942.696 1158.522 997.989 1239.366 1054.133 1341.574 1064.4560000000001 1440 1064.811" fill="#d4e0ed"></path></g><defs><mask id="SvgjsMask1045"><rect width="1440" height="560" fill="#ffffff"></rect></mask></defs></svg>